<?xml version="1.0" encoding="UTF-8"?>
<svg width="100px" height="100px" viewBox="0 0 100 100" version="1.1" xmlns="http://www.w3.org/2000/svg" xmlns:xlink="http://www.w3.org/1999/xlink">
    <title>Logo</title>
    <defs>
        <linearGradient x1="50%" y1="2.46519033e-30%" x2="50%" y2="100%" id="linearGradient-1">
            <stop stop-color="#E02020" offset="0%"></stop>
            <stop stop-color="#FA6400" offset="16.7194618%"></stop>
            <stop stop-color="#F7B500" offset="33.3898731%"></stop>
            <stop stop-color="#6DD400" offset="50.0513863%"></stop>
            <stop stop-color="#0091FF" offset="66.5668601%"></stop>
            <stop stop-color="#6236FF" offset="83.3200233%"></stop>
            <stop stop-color="#B620E0" offset="100%"></stop>
        </linearGradient>
        <path d="M40.1439688,33.5108443 L58.9899025,33.5108443 L69.3706175,51.4894784 L60.5277862,67.4614317 L40.2476509,67.4614317 L30.3954322,50.3965757 L40.1439688,33.5108443 Z M96.3138396,31.1664892 L59.6963123,31.1664892 C59.6749304,31.1664892 59.6543554,31.1664892 59.6325701,31.1664892 L41.4966771,31.1664892 L59.0500139,0.822198554 C75.9856959,3.93227149 89.961799,15.603618 96.3138396,31.1664892 Z M89.2089944,80.9897851 C95.9616433,72.4644171 100,61.6951491 100,50 C100,44.2248419 99.0128013,38.6760102 97.2021974,33.5108443 L61.6957225,33.5108443 L71.7173828,50.8669797 C71.7282755,50.8835205 71.7379579,50.9008682 71.7553054,50.932336 L89.2089944,80.9897851 Z M45.39706,99.78618 L70.7350253,53.8600568 L87.6118062,82.9069036 C78.4397742,93.3768235 64.979661,100 49.9998185,100 C48.4478146,100 46.9135618,99.9253647 45.39706,99.78618 L45.39706,99.78618 Z M4.09439346,69.8057869 C10.8757667,85.4614478 25.4372499,96.9919959 42.8768188,99.4904628 L59.2275241,69.8057869 L39.6045799,69.8057869 C39.5836014,69.8057869 39.5618161,69.8057869 39.5408376,69.8057869 L4.09439346,69.8057869 Z M10.0432842,19.9768429 L27.937723,50.8278466 L27.95265,50.8629454 C27.990976,50.9553318 28.0410016,51.0424735 28.1019199,51.12195 L28.125319,51.1522076 L37.541024,67.4614317 L3.1486676,67.4614317 C1.11419916,62.0227375 0,56.1390556 0,50 C0,38.7425768 3.74114819,28.3428544 10.0432842,19.9768429 Z M49.9998185,0 C34.5911275,0 20.7889037,7.00845598 11.6100537,18.003647 L29.0431273,48.0497999 L56.5689056,0.432077847 C54.4194186,0.147656855 52.2267644,0 49.9998185,0 L49.9998185,0 Z" id="path-2"></path>
    </defs>
    <g id="Logo" stroke="none" stroke-width="1" fill="none" fill-rule="evenodd">
        <mask id="mask-3" fill="white">
            <use xlink:href="#path-2"></use>
        </mask>
        <use id="Aperture" fill-opacity="0.8" fill="url(#linearGradient-1)" xlink:href="#path-2"></use>
    </g>
</svg>