<?xml version="1.0" encoding="UTF-8"?>
<svg width="18px" height="18px" viewBox="0 0 18 18" version="1.1" xmlns="http://www.w3.org/2000/svg" xmlns:xlink="http://www.w3.org/1999/xlink">
    <title>Logo</title>
    <defs>
        <linearGradient x1="50%" y1="2.46519033e-30%" x2="50%" y2="100%" id="linearGradient-1">
            <stop stop-color="#E02020" offset="0%"></stop>
            <stop stop-color="#FA6400" offset="16.7194618%"></stop>
            <stop stop-color="#F7B500" offset="33.3898731%"></stop>
            <stop stop-color="#6DD400" offset="50.0513863%"></stop>
            <stop stop-color="#0091FF" offset="66.5668601%"></stop>
            <stop stop-color="#6236FF" offset="83.3200233%"></stop>
            <stop stop-color="#B620E0" offset="100%"></stop>
        </linearGradient>
        <path d="M8.42303501,7.36173509 L11.4383844,7.36173509 L13.0992988,10.2383166 L11.6844458,12.7938291 L8.43962415,12.7938291 L6.86326915,10.0634521 L8.42303501,7.36173509 Z M17.4102143,6.98663826 L11.55141,6.98663826 C11.5479889,6.98663826 11.5446969,6.98663826 11.5412112,6.98663826 L8.63946834,6.98663826 L11.4480022,2.13155177 C14.1577113,2.62916344 16.3938878,4.49657888 17.4102143,6.98663826 Z M16.2734391,14.9583656 C17.3538629,13.5943067 18,11.8712239 18,10 C18,9.0759747 17.8420482,8.18816163 17.5523516,7.36173509 L11.8713156,7.36173509 L13.4747812,10.1387168 C13.4765241,10.1413633 13.4780733,10.1441389 13.4808489,10.1491738 L16.2734391,14.9583656 Z M9.2635296,17.9657888 L13.317604,10.6176091 L16.017889,15.2651046 C14.5503639,16.9402918 12.3967458,18 9.99997095,18 C9.75165034,18 9.50616989,17.9880584 9.2635296,17.9657888 L9.2635296,17.9657888 Z M2.65510295,13.1689259 C3.74012267,15.6738317 6.06995999,17.5187193 8.86029101,17.9184741 L11.4764039,13.1689259 L8.33673279,13.1689259 C8.33337623,13.1689259 8.32989058,13.1689259 8.32653402,13.1689259 L2.65510295,13.1689259 Z M3.60692548,5.19629486 L6.47003568,10.1324555 L6.47242399,10.1380713 C6.47855616,10.1528531 6.48656026,10.1667958 6.49630718,10.179512 L6.50005103,10.1843532 L8.00656384,12.7938291 L2.50378682,12.7938291 C2.17827187,11.923638 2,10.9822489 2,10 C2,8.19881229 2.59858371,6.5348567 3.60692548,5.19629486 Z M9.99997095,2 C7.5345804,2 5.32622459,3.12135296 3.85760859,4.88058353 L6.64690037,9.68796798 L11.0510249,2.06913246 C10.707107,2.0236251 10.3562823,2 9.99997095,2 L9.99997095,2 Z" id="path-2"></path>
    </defs>
    <g id="Logo" stroke="none" stroke-width="1" fill="none" fill-rule="evenodd">
        <mask id="mask-3" fill="white">
            <use xlink:href="#path-2"></use>
        </mask>
        <use id="Aperture" fill-opacity="0.8" fill="url(#linearGradient-1)" xlink:href="#path-2"></use>
    </g>
</svg>