<?xml version="1.0" encoding="UTF-8"?>
<svg width="18px" height="18px" viewBox="0 0 18 18" version="1.1" xmlns="http://www.w3.org/2000/svg" xmlns:xlink="http://www.w3.org/1999/xlink">
    <title>Logo</title>
    <defs>
        <linearGradient x1="50%" y1="2.46519033e-30%" x2="50%" y2="100%" id="linearGradient-1">
            <stop stop-color="#E02020" offset="0%"></stop>
            <stop stop-color="#FA6400" offset="16.7194618%"></stop>
            <stop stop-color="#F7B500" offset="33.3898731%"></stop>
            <stop stop-color="#6DD400" offset="50.0513863%"></stop>
            <stop stop-color="#0091FF" offset="66.5668601%"></stop>
            <stop stop-color="#6236FF" offset="83.3200233%"></stop>
            <stop stop-color="#B620E0" offset="100%"></stop>
        </linearGradient>
        <path d="M10.8172763,10.0213013 L13.0787883,10.0213013 L14.3244741,12.1787374 L13.2633343,14.0953718 L10.8297181,14.0953718 L9.64745186,12.0475891 L10.8172763,10.0213013 Z M17.5576608,9.7399787 L13.1635575,9.7399787 C13.1609917,9.7399787 13.1585226,9.7399787 13.1559084,9.7399787 L10.9796013,9.7399787 L13.0860017,6.09866383 C15.1182835,6.47187258 16.7954159,7.87243416 17.5576608,9.7399787 Z M16.7050793,15.7187742 C17.5153972,14.6957301 18,13.4034179 18,12 C18,11.306981 17.8815362,10.6411212 17.6642637,10.0213013 L13.4034867,10.0213013 L14.6060859,12.1040376 C14.6073931,12.1060225 14.6085549,12.1081042 14.6106367,12.1118803 L16.7050793,15.7187742 Z M11.4476472,17.9743416 L14.488203,12.4632068 L16.5134167,15.9488284 C15.4127729,17.2052188 13.7975593,18 11.9999782,18 C11.8137378,18 11.6296274,17.9910438 11.4476472,17.9743416 L11.4476472,17.9743416 Z M6.49132722,14.3766944 C7.305092,16.2553737 9.05246999,17.6390395 11.1452183,17.9388555 L13.1073029,14.3766944 L10.7525496,14.3766944 C10.7500322,14.3766944 10.7474179,14.3766944 10.7449005,14.3766944 L6.49132722,14.3766944 Z M7.20519411,8.39722115 L9.35252676,12.0993416 L9.354318,12.1035534 C9.35891712,12.1146398 9.3649202,12.1250968 9.37223039,12.134634 L9.37503828,12.1382649 L10.5049229,14.0953718 L6.37784011,14.0953718 C6.1337039,13.4427285 6,12.7366867 6,12 C6,10.6491092 6.44893778,9.40114253 7.20519411,8.39722115 Z M11.9999782,6 C10.1509353,6 8.49466844,6.84101472 7.39320644,8.16043765 L9.48517528,11.765976 L12.7882687,6.05184934 C12.5303302,6.01771882 12.2672117,6 11.9999782,6 L11.9999782,6 Z" id="path-2"></path>
    </defs>
    <g id="Logo" stroke="none" stroke-width="1" fill="none" fill-rule="evenodd">
        <mask id="mask-3" fill="white">
            <use xlink:href="#path-2"></use>
        </mask>
        <use id="Aperture" fill-opacity="0.8" fill="url(#linearGradient-1)" xlink:href="#path-2"></use>
    </g>
</svg>