<?xml version="1.0" encoding="UTF-8"?>
<svg width="16px" height="16px" viewBox="0 0 16 16" version="1.1" xmlns="http://www.w3.org/2000/svg" xmlns:xlink="http://www.w3.org/1999/xlink">
    <title>Logo</title>
    <defs>
        <linearGradient x1="50%" y1="2.46519033e-30%" x2="50%" y2="100%" id="linearGradient-1">
            <stop stop-color="#E02020" offset="0%"></stop>
            <stop stop-color="#FA6400" offset="16.7194618%"></stop>
            <stop stop-color="#F7B500" offset="33.3898731%"></stop>
            <stop stop-color="#6DD400" offset="50.0513863%"></stop>
            <stop stop-color="#0091FF" offset="66.5668601%"></stop>
            <stop stop-color="#6236FF" offset="83.3200233%"></stop>
            <stop stop-color="#B620E0" offset="100%"></stop>
        </linearGradient>
        <path d="M8.81727626,8.02130132 L11.0787883,8.02130132 L12.3244741,10.1787374 L11.2633343,12.0953718 L8.82971811,12.0953718 L7.64745186,10.0475891 L8.81727626,8.02130132 Z M15.5576608,7.7399787 L11.1635575,7.7399787 C11.1609917,7.7399787 11.1585226,7.7399787 11.1559084,7.7399787 L8.97960126,7.7399787 L11.0860017,4.09866383 C13.1182835,4.47187258 14.7954159,5.87243416 15.5576608,7.7399787 Z M14.7050793,13.7187742 C15.5153972,12.6957301 16,11.4034179 16,10 C16,9.30698102 15.8815362,8.64112122 15.6642637,8.02130132 L11.4034867,8.02130132 L12.6060859,10.1040376 C12.6073931,10.1060225 12.6085549,10.1081042 12.6106367,10.1118803 L14.7050793,13.7187742 Z M9.4476472,15.9743416 L12.488203,10.4632068 L14.5134167,13.9488284 C13.4127729,15.2052188 11.7975593,16 9.99997821,16 C9.81373776,16 9.62962742,15.9910438 9.4476472,15.9743416 L9.4476472,15.9743416 Z M4.49132722,12.3766944 C5.305092,14.2553737 7.05246999,15.6390395 9.14521826,15.9388555 L11.1073029,12.3766944 L8.75254959,12.3766944 C8.75003217,12.3766944 8.74741793,12.3766944 8.74490052,12.3766944 L4.49132722,12.3766944 Z M5.20519411,6.39722115 L7.35252676,10.0993416 L7.354318,10.1035534 C7.35891712,10.1146398 7.3649202,10.1250968 7.37223039,10.134634 L7.37503828,10.1382649 L8.50492288,12.0953718 L4.37784011,12.0953718 C4.1337039,11.4427285 4,10.7366867 4,10 C4,8.64910922 4.44893778,7.40114253 5.20519411,6.39722115 Z M9.99997821,4 C8.1509353,4 6.49466844,4.84101472 5.39320644,6.16043765 L7.48517528,9.76597599 L10.7882687,4.05184934 C10.5303302,4.01771882 10.2672117,4 9.99997821,4 L9.99997821,4 Z" id="path-2"></path>
    </defs>
    <g id="Logo" stroke="none" stroke-width="1" fill="none" fill-rule="evenodd">
        <mask id="mask-3" fill="white">
            <use xlink:href="#path-2"></use>
        </mask>
        <use id="Aperture" fill-opacity="0.8" fill="url(#linearGradient-1)" xlink:href="#path-2"></use>
    </g>
</svg>