<?xml version="1.0" encoding="UTF-8"?>
<svg width="18px" height="18px" viewBox="0 0 18 18" version="1.1" xmlns="http://www.w3.org/2000/svg" xmlns:xlink="http://www.w3.org/1999/xlink">
    <title>Logo</title>
    <defs>
        <linearGradient x1="50%" y1="2.46519033e-30%" x2="50%" y2="100%" id="linearGradient-1">
            <stop stop-color="#E02020" offset="0%"></stop>
            <stop stop-color="#FA6400" offset="16.7194618%"></stop>
            <stop stop-color="#F7B500" offset="33.3898731%"></stop>
            <stop stop-color="#6DD400" offset="50.0513863%"></stop>
            <stop stop-color="#0091FF" offset="66.5668601%"></stop>
            <stop stop-color="#6236FF" offset="83.3200233%"></stop>
            <stop stop-color="#B620E0" offset="100%"></stop>
        </linearGradient>
        <path d="M7.42303501,6.36173509 L10.4383844,6.36173509 L12.0992988,9.23831655 L10.6844458,11.7938291 L7.43962415,11.7938291 L5.86326915,9.0634521 L7.42303501,6.36173509 Z M16.4102143,5.98663826 L10.55141,5.98663826 C10.5479889,5.98663826 10.5446969,5.98663826 10.5412112,5.98663826 L7.63946834,5.98663826 L10.4480022,1.13155177 C13.1577113,1.62916344 15.3938878,3.49657888 16.4102143,5.98663826 Z M15.2734391,13.9583656 C16.3538629,12.5943067 17,10.8712239 17,9 C17,8.0759747 16.8420482,7.18816163 16.5523516,6.36173509 L10.8713156,6.36173509 L12.4747812,9.13871676 C12.4765241,9.14136328 12.4780733,9.14413891 12.4808489,9.14917377 L15.2734391,13.9583656 Z M8.2635296,16.9657888 L12.317604,9.61760909 L15.017889,14.2651046 C13.5503639,15.9402918 11.3967458,17 8.99997095,17 C8.75165034,17 8.50616989,16.9880584 8.2635296,16.9657888 L8.2635296,16.9657888 Z M1.65510295,12.1689259 C2.74012267,14.6738317 5.06995999,16.5187193 7.86029101,16.9184741 L10.4764039,12.1689259 L7.33673279,12.1689259 C7.33337623,12.1689259 7.32989058,12.1689259 7.32653402,12.1689259 L1.65510295,12.1689259 Z M2.60692548,4.19629486 L5.47003568,9.13245546 L5.47242399,9.13807126 C5.47855616,9.15285309 5.48656026,9.16679577 5.49630718,9.17951201 L5.50005103,9.18435321 L7.00656384,11.7938291 L1.50378682,11.7938291 C1.17827187,10.923638 1,9.9822489 1,9 C1,7.19881229 1.59858371,5.5348567 2.60692548,4.19629486 Z M8.99997095,1 C6.5345804,1 4.32622459,2.12135296 2.85760859,3.88058353 L5.64690037,8.68796798 L10.0510249,1.06913246 C9.70710698,1.0236251 9.35628231,1 8.99997095,1 L8.99997095,1 Z" id="path-2"></path>
    </defs>
    <g id="Logo" stroke="none" stroke-width="1" fill="none" fill-rule="evenodd">
        <mask id="mask-3" fill="white">
            <use xlink:href="#path-2"></use>
        </mask>
        <use id="Aperture" fill-opacity="0.8" fill="url(#linearGradient-1)" xlink:href="#path-2"></use>
    </g>
</svg>