<?xml version="1.0" encoding="UTF-8"?>
<svg width="18px" height="18px" viewBox="0 0 18 18" version="1.1" xmlns="http://www.w3.org/2000/svg" xmlns:xlink="http://www.w3.org/1999/xlink">
    <title>Logo</title>
    <defs>
        <linearGradient x1="50%" y1="2.46519033e-30%" x2="50%" y2="100%" id="linearGradient-1">
            <stop stop-color="#E02020" offset="0%"></stop>
            <stop stop-color="#FA6400" offset="16.7194618%"></stop>
            <stop stop-color="#F7B500" offset="33.3898731%"></stop>
            <stop stop-color="#6DD400" offset="50.0513863%"></stop>
            <stop stop-color="#0091FF" offset="66.5668601%"></stop>
            <stop stop-color="#6236FF" offset="83.3200233%"></stop>
            <stop stop-color="#B620E0" offset="100%"></stop>
        </linearGradient>
        <path d="M8.81727626,10.0213013 L11.0787883,10.0213013 L12.3244741,12.1787374 L11.2633343,14.0953718 L8.82971811,14.0953718 L7.64745186,12.0475891 L8.81727626,10.0213013 Z M15.5576608,9.7399787 L11.1635575,9.7399787 C11.1609917,9.7399787 11.1585226,9.7399787 11.1559084,9.7399787 L8.97960126,9.7399787 L11.0860017,6.09866383 C13.1182835,6.47187258 14.7954159,7.87243416 15.5576608,9.7399787 Z M14.7050793,15.7187742 C15.5153972,14.6957301 16,13.4034179 16,12 C16,11.306981 15.8815362,10.6411212 15.6642637,10.0213013 L11.4034867,10.0213013 L12.6060859,12.1040376 C12.6073931,12.1060225 12.6085549,12.1081042 12.6106367,12.1118803 L14.7050793,15.7187742 Z M9.4476472,17.9743416 L12.488203,12.4632068 L14.5134167,15.9488284 C13.4127729,17.2052188 11.7975593,18 9.99997821,18 C9.81373776,18 9.62962742,17.9910438 9.4476472,17.9743416 L9.4476472,17.9743416 Z M4.49132722,14.3766944 C5.305092,16.2553737 7.05246999,17.6390395 9.14521826,17.9388555 L11.1073029,14.3766944 L8.75254959,14.3766944 C8.75003217,14.3766944 8.74741793,14.3766944 8.74490052,14.3766944 L4.49132722,14.3766944 Z M5.20519411,8.39722115 L7.35252676,12.0993416 L7.354318,12.1035534 C7.35891712,12.1146398 7.3649202,12.1250968 7.37223039,12.134634 L7.37503828,12.1382649 L8.50492288,14.0953718 L4.37784011,14.0953718 C4.1337039,13.4427285 4,12.7366867 4,12 C4,10.6491092 4.44893778,9.40114253 5.20519411,8.39722115 Z M9.99997821,6 C8.1509353,6 6.49466844,6.84101472 5.39320644,8.16043765 L7.48517528,11.765976 L10.7882687,6.05184934 C10.5303302,6.01771882 10.2672117,6 9.99997821,6 L9.99997821,6 Z" id="path-2"></path>
    </defs>
    <g id="Logo" stroke="none" stroke-width="1" fill="none" fill-rule="evenodd">
        <mask id="mask-3" fill="white">
            <use xlink:href="#path-2"></use>
        </mask>
        <use id="Aperture" fill-opacity="0.8" fill="url(#linearGradient-1)" xlink:href="#path-2"></use>
    </g>
</svg>