<?xml version="1.0" encoding="UTF-8"?>
<svg width="100px" height="100px" viewBox="0 0 100 100" version="1.1" xmlns="http://www.w3.org/2000/svg" xmlns:xlink="http://www.w3.org/1999/xlink">
    <title>Logo</title>
    <defs>
        <linearGradient x1="50%" y1="2.46519033e-30%" x2="50%" y2="100%" id="linearGradient-1">
            <stop stop-color="#E02020" offset="0%"></stop>
            <stop stop-color="#FA6400" offset="16.7194618%"></stop>
            <stop stop-color="#F7B500" offset="33.3898731%"></stop>
            <stop stop-color="#6DD400" offset="50.0513863%"></stop>
            <stop stop-color="#0091FF" offset="66.5668601%"></stop>
            <stop stop-color="#6236FF" offset="83.3200233%"></stop>
            <stop stop-color="#B620E0" offset="100%"></stop>
        </linearGradient>
        <path d="M42.1151751,36.8086754 L57.191922,36.8086754 L65.496494,51.1915828 L58.422229,63.9691454 L42.1981207,63.9691454 L34.3163457,50.3172605 L42.1151751,36.8086754 Z M87.0510717,34.9331913 L57.7570499,34.9331913 C57.7399444,34.9331913 57.7234843,34.9331913 57.706056,34.9331913 L43.1973417,34.9331913 L57.2400111,10.6577588 C70.7885567,13.1458172 81.9694392,22.4828944 87.0510717,34.9331913 Z M81.3671956,74.791828 C86.7693146,67.9715337 90,59.3561193 90,50 C90,45.3798735 89.210241,40.9408082 87.7617579,36.8086754 L59.356578,36.8086754 L67.3739062,50.6935838 C67.3826204,50.7068164 67.3903663,50.7206946 67.4042443,50.7458688 L81.3671956,74.791828 Z M46.317648,89.828944 L66.5880202,53.0880454 L80.089445,76.3255229 C72.7518194,84.7014588 61.9837288,90 49.9998548,90 C48.7582517,90 47.5308495,89.9402918 46.317648,89.828944 L46.317648,89.828944 Z M13.2755148,65.8446295 C18.7006133,78.3691583 30.3498,87.5935967 44.3014551,89.5923703 L57.3820193,65.8446295 L41.6836639,65.8446295 C41.6668812,65.8446295 41.6494529,65.8446295 41.6326701,65.8446295 L13.2755148,65.8446295 Z M18.0346274,25.9814743 L32.3501784,50.6622773 L32.36212,50.6903563 C32.3927808,50.7642654 32.4328013,50.8339788 32.4815359,50.89756 L32.5002552,50.9217661 L40.0328192,63.9691454 L12.5189341,63.9691454 C10.8913593,59.61819 10,54.9112445 10,50 C10,40.9940615 12.9929186,32.6742835 18.0346274,25.9814743 Z M49.9998548,10 C37.672902,10 26.6311229,15.6067648 19.288043,24.4029176 L33.2345018,48.4398399 L55.2551245,10.3456623 C53.5355349,10.1181255 51.7814115,10 49.9998548,10 L49.9998548,10 Z" id="path-2"></path>
    </defs>
    <g id="Logo" stroke="none" stroke-width="1" fill="none" fill-rule="evenodd">
        <mask id="mask-3" fill="white">
            <use xlink:href="#path-2"></use>
        </mask>
        <use id="Aperture" fill-opacity="0.8" fill="url(#linearGradient-1)" xlink:href="#path-2"></use>
    </g>
</svg>