<?xml version="1.0" encoding="UTF-8"?>
<svg width="18px" height="18px" viewBox="0 0 18 18" version="1.1" xmlns="http://www.w3.org/2000/svg" xmlns:xlink="http://www.w3.org/1999/xlink">
    <title>Logo</title>
    <defs>
        <linearGradient x1="50%" y1="2.46519033e-30%" x2="50%" y2="100%" id="linearGradient-1">
            <stop stop-color="#E02020" offset="0%"></stop>
            <stop stop-color="#FA6400" offset="16.7194618%"></stop>
            <stop stop-color="#F7B500" offset="33.3898731%"></stop>
            <stop stop-color="#6DD400" offset="50.0513863%"></stop>
            <stop stop-color="#0091FF" offset="66.5668601%"></stop>
            <stop stop-color="#6236FF" offset="83.3200233%"></stop>
            <stop stop-color="#B620E0" offset="100%"></stop>
        </linearGradient>
        <path d="M7.81727626,10.0213013 L10.0787883,10.0213013 L11.3244741,12.1787374 L10.2633343,14.0953718 L7.82971811,14.0953718 L6.64745186,12.0475891 L7.81727626,10.0213013 Z M14.5576608,9.7399787 L10.1635575,9.7399787 C10.1609917,9.7399787 10.1585226,9.7399787 10.1559084,9.7399787 L7.97960126,9.7399787 L10.0860017,6.09866383 C12.1182835,6.47187258 13.7954159,7.87243416 14.5576608,9.7399787 Z M13.7050793,15.7187742 C14.5153972,14.6957301 15,13.4034179 15,12 C15,11.306981 14.8815362,10.6411212 14.6642637,10.0213013 L10.4034867,10.0213013 L11.6060859,12.1040376 C11.6073931,12.1060225 11.6085549,12.1081042 11.6106367,12.1118803 L13.7050793,15.7187742 Z M8.4476472,17.9743416 L11.488203,12.4632068 L13.5134167,15.9488284 C12.4127729,17.2052188 10.7975593,18 8.99997821,18 C8.81373776,18 8.62962742,17.9910438 8.4476472,17.9743416 L8.4476472,17.9743416 Z M3.49132722,14.3766944 C4.305092,16.2553737 6.05246999,17.6390395 8.14521826,17.9388555 L10.1073029,14.3766944 L7.75254959,14.3766944 C7.75003217,14.3766944 7.74741793,14.3766944 7.74490052,14.3766944 L3.49132722,14.3766944 Z M4.20519411,8.39722115 L6.35252676,12.0993416 L6.354318,12.1035534 C6.35891712,12.1146398 6.3649202,12.1250968 6.37223039,12.134634 L6.37503828,12.1382649 L7.50492288,14.0953718 L3.37784011,14.0953718 C3.1337039,13.4427285 3,12.7366867 3,12 C3,10.6491092 3.44893778,9.40114253 4.20519411,8.39722115 Z M8.99997821,6 C7.1509353,6 5.49466844,6.84101472 4.39320644,8.16043765 L6.48517528,11.765976 L9.78826867,6.05184934 C9.53033024,6.01771882 9.26721173,6 8.99997821,6 L8.99997821,6 Z" id="path-2"></path>
    </defs>
    <g id="Logo" stroke="none" stroke-width="1" fill="none" fill-rule="evenodd">
        <mask id="mask-3" fill="white">
            <use xlink:href="#path-2"></use>
        </mask>
        <use id="Aperture" fill-opacity="0.8" fill="url(#linearGradient-1)" xlink:href="#path-2"></use>
    </g>
</svg>